# xmcd
#
# Track frame offsets: 
#        300
#        41139
#        64123
#        85723
#        118654
#        144296
#        170310
#        190752
#        224846
#
# Disc length: 3691 seconds
#
# Revision: 0
# Processed by: cddbd v1.5.2PL0 Copyright (c) Steve Scherf et al.
# Submitted via: ExactAudioCopy v1.0b1
#
DISCID=810e6709
DTITLE=Jimmy Dawkins - I Want To Know
DYEAR=1999
DGENRE=Chicago Blues
TTITLE0=I Want To Know
TTITLE1=Rock Me Baby
TTITLE2=I Wonder Why
TTITLE3=Cold Sweet Blues
TTITLE4=Driving Wheel
TTITLE5=Will My Baby Be Home Tonight
TTITLE6=Way She Walks
TTITLE7=I've Been Mistreated
TTITLE8=Are You Ready
EXTD=
EXTT0=
EXTT1=
EXTT2=
EXTT3=
EXTT4=
EXTT5=
EXTT6=
EXTT7=
EXTT8=
PLAYORDER=
